<svg xmlns="http://www.w3.org/2000/svg" width="56" height="70" viewBox="0 0 56 70" fill="none">
  <path d="M19.56 53.0333H42.072C44.077 53.0333 46 52.2368 47.4177 50.8191C48.8355 49.4013 49.632 47.4784 49.632 45.4733V28.5613C49.632 28.0415 49.4255 27.543 49.0579 27.1754C48.6904 26.8078 48.1918 26.6013 47.672 26.6013C47.1522 26.6013 46.6536 26.8078 46.2861 27.1754C45.9185 27.543 45.712 28.0415 45.712 28.5613V45.4733C45.712 46.4387 45.3285 47.3646 44.6459 48.0472C43.9632 48.7298 43.0374 49.1133 42.072 49.1133H19.56C18.5946 49.1133 17.6688 48.7298 16.9861 48.0472C16.3035 47.3646 15.92 46.4387 15.92 45.4733V17.9213C15.92 16.9559 16.3035 16.0301 16.9861 15.3475C17.6688 14.6648 18.5946 14.2813 19.56 14.2813H33.112C33.6318 14.2813 34.1304 14.0748 34.4979 13.7073C34.8655 13.3397 35.072 12.8412 35.072 12.3213C35.072 11.8015 34.8655 11.303 34.4979 10.9354C34.1304 10.5678 33.6318 10.3613 33.112 10.3613H19.56C17.555 10.3613 15.632 11.1578 14.2143 12.5756C12.7965 13.9934 12 15.9163 12 17.9213V45.4733C12 47.4784 12.7965 49.4013 14.2143 50.8191C15.632 52.2368 17.555 53.0333 19.56 53.0333Z" fill="#DBEDF3"/>
  <path d="M51.48 9.63334C50.4212 8.58688 48.9926 8 47.504 8C46.0153 8 44.5867 8.58688 43.528 9.63334L27.848 25.3133C27.6469 25.5201 27.4939 25.7687 27.4 26.0413L24.656 33.9933C24.5588 34.2868 24.5324 34.5992 24.579 34.9048C24.6256 35.2104 24.7439 35.5007 24.9241 35.7519C25.1043 36.0031 25.3414 36.2081 25.6159 36.3502C25.8905 36.4922 26.1948 36.5673 26.504 36.5693L27.12 36.4573L35.016 33.7693C35.2886 33.6754 35.5372 33.5224 35.744 33.3213L51.424 17.6413C51.9542 17.1197 52.3764 16.4985 52.6663 15.8134C52.9562 15.1283 53.108 14.3928 53.1132 13.649C53.1184 12.9051 52.9769 12.1675 52.6966 11.4785C52.4163 10.7894 52.0029 10.1624 51.48 9.63334ZM48.68 14.8413L33.336 30.1853L29.64 31.4733L30.928 27.7773L46.272 12.4333C46.5954 12.1219 47.027 11.948 47.476 11.948C47.925 11.948 48.3565 12.1219 48.68 12.4333C48.9914 12.7568 49.1653 13.1883 49.1653 13.6373C49.1653 14.0863 48.9914 14.5179 48.68 14.8413Z" fill="#DBEDF3"/>
</svg>