<svg xmlns="http://www.w3.org/2000/svg" width="69" height="86" viewBox="0 0 69 86" fill="none">
  <path d="M33.9285 8.52522C25.7019 8.52522 18.1786 12.3828 13.3833 18.7126V15.4518C13.3833 14.2796 12.4242 13.3205 11.252 13.3205C10.0799 13.3205 9.12079 14.2796 9.12079 15.4518V25.2129C9.12079 26.3851 10.0799 27.3442 11.252 27.3442H21.0984C22.2706 27.3442 23.2297 26.3851 23.2297 25.2129C23.2297 24.0407 22.2706 23.0817 21.0984 23.0817H15.5572C19.4147 16.7518 26.32 12.7877 33.9285 12.7877C45.7783 12.7877 55.4115 22.357 55.4115 34.1002C55.4115 45.8434 45.7783 55.4127 33.9285 55.4127C23.4215 55.4127 14.5129 47.9747 12.7439 37.702C12.5521 36.5512 11.4652 35.7626 10.293 35.9544C9.1421 36.1462 8.35354 37.2545 8.54536 38.4053C10.6553 50.724 21.3329 59.6539 33.9285 59.6539C48.1227 59.6539 59.674 48.1878 59.674 34.0789C59.674 19.97 48.1227 8.50391 33.9285 8.50391V8.52522Z" fill="#DBEDF3"/>
  <path d="M34.099 21.7168C32.9268 21.7168 31.9678 22.6759 31.9678 23.848V34.0994C31.9678 34.9092 32.4153 35.6339 33.14 35.9962L42.688 40.8767C43.0077 41.0259 43.3273 41.1112 43.647 41.1112C44.4143 41.1112 45.1602 40.6849 45.5438 39.939C46.0767 38.8947 45.6717 37.6159 44.6061 37.0831L36.209 32.7993V23.848C36.209 22.6759 35.2499 21.7168 34.0777 21.7168H34.099Z" fill="#DBEDF3"/>
</svg>