<svg xmlns="http://www.w3.org/2000/svg" width="185" height="149" viewBox="0 0 185 149" fill="none">
  <path d="M202.186 19.3535H23.2257C21.6319 19.3535 20.0381 20.7196 20.0381 22.5411V158.241C20.0381 159.835 21.4042 161.429 23.2257 161.429H202.186C203.779 161.429 205.373 160.062 205.373 158.241V22.3134C205.145 20.7196 203.779 19.3535 202.186 19.3535ZM86.9773 119.079V93.3509H140.028V119.079H86.9773ZM139.8 125.227V155.053H86.9773V125.227H139.8ZM198.998 61.2474V87.2035H145.948V61.2474H198.998ZM139.8 87.2035H86.9773V61.2474H140.028V87.2035H139.8ZM80.8298 87.2035H26.1856V61.2474H80.8298V87.2035ZM26.1856 93.3509H80.8298V119.079H26.1856V93.3509ZM145.948 93.3509H198.998V119.079H145.948V93.3509ZM198.998 55.1H86.9773V25.501H198.998V55.1ZM80.8298 25.501V55.1H26.1856V25.501H80.8298ZM26.1856 125.227H80.8298V155.053H26.1856V125.227ZM145.948 155.053V125.227H198.998V155.053H145.948Z" fill="#ABABAB" fill-opacity="0.35"/>
  <path d="M130.009 104.279H96.0841C94.4903 104.279 92.8965 105.645 92.8965 107.467C92.8965 109.061 94.2626 110.654 96.0841 110.654H130.009C131.603 110.654 133.197 109.288 133.197 107.467C133.197 105.645 131.831 104.279 130.009 104.279Z" fill="#ABABAB" fill-opacity="0.35"/>
  <path d="M95.6261 143.214H129.551C131.145 143.214 132.739 141.848 132.739 140.026C132.739 138.433 131.373 136.839 129.551 136.839H95.6261C94.0323 136.839 92.4385 138.205 92.4385 140.026C92.4385 141.848 93.8046 143.214 95.6261 143.214Z" fill="#ABABAB" fill-opacity="0.35"/>
  <path d="M182.147 3.18758C182.147 1.59379 180.781 0 178.96 0H3.18758C1.59379 0 0 1.36611 0 3.18758V135.928C0 137.521 1.36611 139.115 3.18758 139.115C5.00906 139.115 6.37516 137.749 6.37516 135.928V6.37516H179.188C180.554 6.37516 182.147 5.00906 182.147 3.18758Z" fill="#ABABAB" fill-opacity="0.35"/>
</svg>