<svg xmlns="http://www.w3.org/2000/svg" width="176" height="154" viewBox="0 0 176 154" fill="none">
  <path fill-rule="evenodd" clip-rule="evenodd" d="M140.629 124.253C140.2 123.914 139.924 123.419 139.86 122.876C139.797 122.334 139.951 121.788 140.29 121.359C140.629 120.93 141.124 120.654 141.667 120.59C142.21 120.527 142.756 120.681 143.184 121.02L158.925 133.438C159.335 133.783 159.595 134.274 159.649 134.807C159.703 135.339 159.548 135.872 159.216 136.293C158.884 136.713 158.401 136.987 157.87 137.058C157.339 137.128 156.802 136.989 156.372 136.669L140.629 124.253ZM167.927 106.786C168.192 106.851 168.468 106.862 168.737 106.82C169.007 106.777 169.266 106.682 169.498 106.539C169.731 106.396 169.933 106.208 170.093 105.986C170.252 105.765 170.366 105.513 170.428 105.247C170.49 104.981 170.499 104.706 170.454 104.436C170.408 104.167 170.31 103.909 170.165 103.678C170.019 103.447 169.829 103.247 169.606 103.09C169.383 102.933 169.13 102.821 168.864 102.762L149.341 98.2043C148.807 98.0798 148.246 98.1724 147.78 98.4616C147.315 98.7509 146.983 99.2132 146.859 99.7468C146.734 100.28 146.827 100.842 147.116 101.307C147.405 101.773 147.868 102.104 148.401 102.228L167.927 106.786ZM126.333 152.714C126.415 152.976 126.55 153.22 126.728 153.429C126.906 153.639 127.124 153.811 127.37 153.935C127.616 154.058 127.884 154.132 128.158 154.151C128.433 154.169 128.708 154.133 128.968 154.043C129.228 153.954 129.468 153.813 129.673 153.629C129.878 153.445 130.044 153.223 130.161 152.974C130.278 152.725 130.345 152.455 130.356 152.18C130.367 151.905 130.323 151.631 130.227 151.373L123.667 132.429C123.479 131.927 123.102 131.517 122.616 131.288C122.131 131.059 121.575 131.029 121.067 131.204C120.56 131.378 120.14 131.744 119.899 132.224C119.657 132.703 119.612 133.258 119.773 133.77L126.333 152.714ZM56.9314 111.797C61.8096 115.84 67.6072 118.62 73.8132 119.893L75.7673 106.768C71.9604 105.878 68.4133 104.113 65.4073 101.613C62.4588 99.1687 60.1194 96.072 58.5739 92.5678L46.012 96.8936C48.3638 102.688 52.1156 107.808 56.9314 111.797ZM121.631 95.2752L117.593 96.6738C117.075 96.8516 116.507 96.8161 116.014 96.5752C115.522 96.3342 115.145 95.9076 114.968 95.389C114.79 94.8705 114.825 94.3026 115.066 93.8102C115.307 93.3179 115.734 92.9414 116.252 92.7636L150.451 80.9789C160.014 77.686 167.877 70.7291 172.311 61.6388C176.744 52.5485 177.385 42.0693 174.092 32.5066C170.799 22.9439 163.842 15.0809 154.752 10.6475C145.661 6.21409 135.182 5.57339 125.619 8.86633L83.1722 23.4803C76.4063 25.8041 70.4383 29.9992 65.9608 35.5786C62.1614 40.3082 59.5301 45.8666 58.2801 51.803L70.5643 47.5731C71.8617 47.1282 73.1652 46.7492 74.4746 46.4362C75.8897 44.1478 77.6656 42.1033 79.7335 40.382C82.0332 38.4669 84.6622 36.9862 87.492 36.0122L129.939 21.3983C136.155 19.344 142.93 19.8223 148.795 22.7294C154.661 25.6366 159.144 30.7384 161.274 36.9288C163.403 43.1192 163.007 49.8995 160.171 55.7997C157.335 61.7 152.288 66.2448 146.124 68.449L103.684 83.0609C100.269 84.237 96.6363 84.6463 93.0447 84.2598L92.0097 97.4211C94.4899 97.5979 96.9804 97.5725 99.4565 97.3452C102.365 97.0973 105.234 96.5064 108.004 95.5849L108.959 95.2552C109.476 95.0865 110.038 95.1278 110.524 95.3702C111.01 95.6126 111.382 96.0366 111.558 96.5506C111.734 97.0645 111.701 97.6271 111.465 98.1168C111.23 98.6065 110.811 98.9839 110.3 99.1674L109.345 99.4951C108.072 99.9299 106.776 100.293 105.463 100.582C102.466 105.486 97.8523 109.19 92.4173 111.058L78.5966 115.825L77.5976 122.597C77.5584 122.865 77.4667 123.124 77.3277 123.357C77.1888 123.59 77.0052 123.793 76.7875 123.956C76.5699 124.118 76.3224 124.236 76.0592 124.302C75.7961 124.369 75.5224 124.382 75.2538 124.343H75.2438H75.1759C71.2395 123.748 67.4059 122.605 63.7868 120.946L49.9901 125.696C43.7454 127.831 36.9088 127.405 30.9778 124.51C25.0468 121.615 20.5048 116.488 18.3466 110.251C16.217 104.011 16.6444 97.1821 19.5352 91.2567C22.4261 85.3312 27.5453 80.7912 33.7737 78.6292L76.2209 64.0172C82.1221 62.0043 88.5631 62.2736 94.2758 64.7719C99.9884 67.2703 104.559 71.8168 107.087 77.5163L119.649 73.1904C115.952 64.17 108.952 56.9009 100.077 52.8671C91.2018 48.8333 81.122 48.3391 71.8951 51.4853L29.4539 66.0932C19.9103 69.4137 12.0681 76.3753 7.63976 85.4581C3.21145 94.5408 2.55675 105.007 5.81865 114.571C9.13744 124.114 16.0977 131.957 25.1794 136.386C34.2611 140.815 44.7265 141.471 54.29 138.21L96.7371 123.598C103.503 121.274 109.471 117.079 113.949 111.5C117.748 106.77 120.38 101.212 121.631 95.2752ZM18.2707 13.5858C17.8872 13.2098 17.3723 12.998 16.8352 12.9955C16.2982 12.993 15.7813 13.1999 15.3944 13.5723C15.0074 13.9447 14.7808 14.4533 14.7627 14.99C14.7447 15.5268 14.9365 16.0494 15.2975 16.447L29.2281 30.8652C29.6093 31.2521 30.1276 31.4732 30.6706 31.4806C31.2137 31.4879 31.7378 31.2809 32.1293 30.9044C32.5208 30.5279 32.7481 30.0123 32.7619 29.4693C32.7758 28.9264 32.575 28.3999 32.2032 28.0039L18.2707 13.5858ZM2.80355 41.6468C2.54968 41.5502 2.27929 41.5046 2.0078 41.5125C1.73631 41.5205 1.46904 41.5818 1.22125 41.6931C0.973463 41.8043 0.750011 41.9632 0.563652 42.1608C0.377293 42.3584 0.231676 42.5908 0.135116 42.8446C0.038556 43.0985 -0.00705567 43.3689 0.000883913 43.6404C0.00882349 43.9119 0.0701591 44.1791 0.181389 44.4269C0.29262 44.6747 0.451566 44.8982 0.649153 45.0845C0.846741 45.2709 1.0791 45.4165 1.33296 45.5131L20.0689 52.6522C20.5777 52.8309 21.1361 52.8039 21.6252 52.5768C22.1143 52.3497 22.4954 51.9406 22.6872 51.4366C22.879 50.9326 22.8663 50.3737 22.6519 49.8789C22.4375 49.3841 22.0384 48.9926 21.5395 48.7879L2.80355 41.6468ZM50.1779 1.71721C50.1321 1.44565 50.0323 1.18604 49.8844 0.95372C49.7365 0.721404 49.5435 0.521102 49.3169 0.364657C49.0902 0.208212 48.8345 0.0988014 48.5648 0.042894C48.2952 -0.0130134 48.017 -0.0142819 47.7469 0.039163C47.4767 0.0926079 47.22 0.199681 46.9919 0.354051C46.7639 0.508422 46.5691 0.706957 46.4191 0.937914C46.2691 1.16887 46.1669 1.42756 46.1186 1.69869C46.0703 1.96982 46.0768 2.24789 46.1378 2.51644L50.094 22.1715C50.2013 22.7073 50.5171 23.1785 50.9718 23.4814C51.4265 23.7844 51.9829 23.8943 52.5187 23.787C53.0544 23.6797 53.5256 23.3639 53.8286 22.9092C54.1315 22.4545 54.2415 21.8981 54.1341 21.3623L50.1779 1.71721Z" fill="#ABABAB" fill-opacity="0.35"/>
</svg>